<?xml version="1.0" encoding="UTF-8"?>
<svg xmlns="http://www.w3.org/2000/svg">
  <defs>
    <!-- 课程图标 -->
    <symbol id="icon-course" viewBox="0 0 24 24">
      <path d="M12 3L1 9l4 2.4V17h2v-4.7l5 3L21 9l-9-6zm0 2.8L18.2 9 12 12.2 5.8 9 12 5.8z" fill="currentColor"/>
    </symbol>
    
    <!-- 传感器图标 -->
    <symbol id="icon-sensor" viewBox="0 0 24 24">
      <path d="M7 5h10v2h2V3H5v4h2V5zm10 14H7v-2H5v4h14v-4h-2v2zm-1-6h-3V8h-2v5H8l4 4 4-4z" fill="currentColor"/>
    </symbol>
    
    <!-- 练习图标 -->
    <symbol id="icon-practice" viewBox="0 0 24 24">
      <path d="M3 17.25V21h3.75L17.81 9.94l-3.75-3.75L3 17.25zM20.71 7.04c.39-.39.39-1.02 0-1.41l-2.34-2.34c-.39-.39-1.02-.39-1.41 0l-1.83 1.83 3.75 3.75 1.83-1.83z" fill="currentColor"/>
    </symbol>
    
    <!-- 学习图标 -->
    <symbol id="icon-learn" viewBox="0 0 24 24">
      <path d="M12 21.35l-1.45-1.32C5.4 15.36 2 12.28 2 8.5 2 5.42 4.42 3 7.5 3c1.74 0 3.41.81 4.5 2.09C13.09 3.81 14.76 3 16.5 3 19.58 3 22 5.42 22 8.5c0 3.78-3.4 6.86-8.55 11.54L12 21.35z" fill="currentColor"/>
    </symbol>
  </defs>
</svg> 