<?xml version="1.0" encoding="UTF-8"?>
<svg width="200" height="200" viewBox="0 0 200 200" xmlns="http://www.w3.org/2000/svg">
  <!-- close -->
  <g transform="translate(4,4)">
    <circle cx="16" cy="16" r="14" fill="none" stroke="#333" stroke-width="2"/>
    <line x1="10" y1="10" x2="22" y2="22" stroke="#333" stroke-width="2"/>
    <line x1="22" y1="10" x2="10" y2="22" stroke="#333" stroke-width="2"/>
  </g>
  
  <!-- menu -->
  <g transform="translate(44,4)">
    <rect x="6" y="8" width="20" height="2" rx="1" fill="#333"/>
    <rect x="6" y="15" width="20" height="2" rx="1" fill="#333"/>
    <rect x="6" y="22" width="20" height="2" rx="1" fill="#333"/>
  </g>
  
  <!-- edit -->
  <g transform="translate(84,4)">
    <path d="M20,6 L26,12 L12,26 L6,26 L6,20 L20,6" fill="none" stroke="#333" stroke-width="2"/>
  </g>
  
  <!-- delete -->
  <g transform="translate(124,4)">
    <path d="M8,8 L24,8 L22,26 L10,26 L8,8" fill="none" stroke="#333" stroke-width="2"/>
    <line x1="12" y1="4" x2="20" y2="4" stroke="#333" stroke-width="2"/>
  </g>
  
  <!-- add -->
  <g transform="translate(164,4)">
    <circle cx="16" cy="16" r="14" fill="none" stroke="#333" stroke-width="2"/>
    <line x1="8" y1="16" x2="24" y2="16" stroke="#333" stroke-width="2"/>
    <line x1="16" y1="8" x2="16" y2="24" stroke="#333" stroke-width="2"/>
  </g>
  
  <!-- search -->
  <g transform="translate(4,44)">
    <circle cx="14" cy="14" r="8" fill="none" stroke="#333" stroke-width="2"/>
    <line x1="20" y1="20" x2="26" y2="26" stroke="#333" stroke-width="2"/>
  </g>
  
  <!-- settings -->
  <g transform="translate(44,44)">
    <circle cx="16" cy="16" r="6" fill="none" stroke="#333" stroke-width="2"/>
    <path d="M16,4 L16,10 M16,22 L16,28 M4,16 L10,16 M22,16 L28,16" stroke="#333" stroke-width="2"/>
  </g>
  
  <!-- user -->
  <g transform="translate(84,44)">
    <circle cx="16" cy="12" r="6" fill="none" stroke="#333" stroke-width="2"/>
    <path d="M8,28 C8,22 24,22 24,28" fill="none" stroke="#333" stroke-width="2"/>
  </g>
  
  <!-- notification -->
  <g transform="translate(124,44)">
    <path d="M16,28 C18,28 20,26 20,24 L12,24 C12,26 14,28 16,28z" fill="#333"/>
    <path d="M26,24 L6,24 L6,22 L10,18 L10,12 C10,8 12,4 16,4 C20,4 22,8 22,12 L22,18 L26,22z" fill="none" stroke="#333" stroke-width="2"/>
  </g>
  
  <!-- home -->
  <g transform="translate(164,44)">
    <path d="M4,14 L16,4 L28,14 L28,28 L4,28z" fill="none" stroke="#333" stroke-width="2"/>
    <rect x="12" y="16" width="8" height="12" fill="none" stroke="#333" stroke-width="2"/>
  </g>
</svg> 