<?xml version="1.0" encoding="UTF-8"?>
<svg xmlns="http://www.w3.org/2000/svg" style="display: none;">
  <symbol id="icon-course" viewBox="0 0 24 24">
    <path d="M12 3L1 9l4 2.18v6L12 21l7-3.82v-6l2-1.09V17h2V9L12 3zm6.82 6L12 12.72 5.18 9 12 5.28 18.82 9zM17 15.99l-5 2.73-5-2.73v-3.72L12 15l5-2.73v3.72z" fill="currentColor"/>
  </symbol>
  <symbol id="icon-sensor" viewBox="0 0 24 24">
    <path d="M12 2L2 7l10 5 10-5-10-5zM2 17l10 5 10-5M2 12l10 5 10-5" stroke="currentColor" fill="none" stroke-width="2"/>
  </symbol>
  <symbol id="icon-practice" viewBox="0 0 24 24">
    <path d="M14.6 16.6l4.6-4.6-4.6-4.6L16 6l6 6-6 6-1.4-1.4zm-5.2 0L4.8 12l4.6-4.6L8 6l-6 6 6 6 1.4-1.4z" fill="currentColor"/>
  </symbol>
  <symbol id="icon-learn" viewBox="0 0 24 24">
    <path d="M12 3L1 9l11 6 9-4.91V17h2V9L12 3zm0 14.99l-6.5-3.55v-2.45l6.5 3.55 6.5-3.55v2.45L12 17.99z" fill="currentColor"/>
  </symbol>
</svg> 